<?xml version="1.0" encoding="UTF-8" standalone="no"?>
<!DOCTYPE svg PUBLIC "-//W3C//DTD SVG 1.1//EN" "http://www.w3.org/Graphics/SVG/1.1/DTD/svg11.dtd">
<svg width="100%" height="100%" viewBox="0 0 3300 2550" version="1.1" xmlns="http://www.w3.org/2000/svg" xmlns:xlink="http://www.w3.org/1999/xlink" xml:space="preserve" xmlns:serif="http://www.serif.com/" style="fill-rule:evenodd;clip-rule:evenodd;stroke-linecap:round;stroke-linejoin:round;stroke-miterlimit:1.5;">
    <g transform="matrix(1,0,0,1,0.5,-5)">
        <rect x="817" y="447" width="1665" height="1666" style="stroke:rgb(235,235,235);stroke-width:1px;"/>
    </g>
    <g transform="matrix(32.521616,0,0,33.465247,-25029.402108,-37843.489881)">
        <path d="M816.034,1191.754C813.001,1191.754 810.309,1191.145 807.959,1189.929C805.609,1188.712 803.776,1186.912 802.459,1184.529C801.142,1182.145 800.484,1179.22 800.484,1175.754C800.484,1173.687 800.751,1171.62 801.284,1169.554C801.817,1167.487 802.542,1165.504 803.459,1163.604C804.376,1161.704 805.401,1159.954 806.534,1158.354C806.034,1156.354 805.784,1154.187 805.784,1151.854C805.784,1150.087 805.984,1148.404 806.384,1146.804C806.517,1146.337 806.751,1146.104 807.084,1146.104C807.351,1146.104 807.467,1146.27 807.434,1146.604C807.334,1147.27 807.251,1147.979 807.184,1148.729C807.117,1149.479 807.084,1150.37 807.084,1151.404C807.084,1153.337 807.267,1155.17 807.634,1156.904C807.967,1156.47 808.301,1156.07 808.634,1155.704C810.001,1154.204 811.617,1152.795 813.484,1151.479C815.351,1150.162 817.426,1149.104 819.709,1148.304C821.992,1147.504 824.417,1147.104 826.984,1147.104C829.384,1147.104 831.584,1147.545 833.584,1148.429C835.584,1149.312 837.192,1150.579 838.409,1152.229C839.626,1153.879 840.234,1155.87 840.234,1158.204C840.234,1159.67 839.842,1161.17 839.059,1162.704C838.276,1164.237 837.159,1165.645 835.709,1166.929C834.259,1168.212 832.509,1169.254 830.459,1170.054C828.409,1170.854 826.117,1171.254 823.584,1171.254C820.251,1171.254 817.201,1170.52 814.434,1169.054C811.667,1167.587 809.517,1165.354 807.984,1162.354C806.651,1164.72 805.667,1167.12 805.034,1169.554C804.401,1171.987 804.084,1174.304 804.084,1176.504C804.084,1179.704 804.617,1182.304 805.684,1184.304C806.751,1186.304 808.226,1187.779 810.109,1188.729C811.992,1189.679 814.151,1190.154 816.584,1190.154C820.917,1190.154 824.726,1189.062 828.009,1186.879C831.292,1184.695 834.001,1181.32 836.134,1176.754C836.534,1176.754 836.734,1176.904 836.734,1177.204C834.667,1182.137 831.842,1185.795 828.259,1188.179C824.676,1190.562 820.601,1191.754 816.034,1191.754ZM810.134,1159.004C809.701,1159.604 809.284,1160.22 808.884,1160.854C810.051,1163.587 811.834,1165.787 814.234,1167.454C816.634,1169.12 819.651,1169.954 823.284,1169.954C825.584,1169.954 827.642,1169.604 829.459,1168.904C831.276,1168.204 832.809,1167.27 834.059,1166.104C835.309,1164.937 836.267,1163.645 836.934,1162.229C837.601,1160.812 837.934,1159.387 837.934,1157.954C837.934,1156.187 837.459,1154.637 836.509,1153.304C835.559,1151.97 834.267,1150.929 832.634,1150.179C831.001,1149.429 829.151,1149.054 827.084,1149.054C825.017,1149.054 822.942,1149.487 820.859,1150.354C818.776,1151.22 816.809,1152.404 814.959,1153.904C813.109,1155.404 811.501,1157.104 810.134,1159.004Z" style="fill:white;fill-rule:nonzero;stroke:rgb(41,41,41);stroke-width:0.03px;stroke-linecap:butt;stroke-miterlimit:2;"/>
    </g>
</svg>
